<?xml version="1.0" encoding="UTF-8"?>
<svg width="54px" height="54px" viewBox="0 0 54 54" version="1.1" xmlns="http://www.w3.org/2000/svg" xmlns:xlink="http://www.w3.org/1999/xlink">
    <!-- Generator: Sketch 56 (81588) - https://sketch.com -->
    <title>排行</title>
    <desc>Created with Sketch.</desc>
    <g id="页面-1" stroke="none" stroke-width="1" fill="none" fill-rule="evenodd">
        <g id="画板" transform="translate(-155.000000, -49.000000)" fill="#333333">
            <g id="排行" transform="translate(155.000000, 49.000000)">
                <path d="M8,46.6977881 C6.8954305,46.6977881 6,45.8023576 6,44.6977881 C6,43.5932186 6.8954305,42.6977881 8,42.6977881 L45,42.6977881 C46.1045695,42.6977881 47,43.5932186 47,44.6977881 C47,45.8023576 46.1045695,46.6977881 45,46.6977881 L8,46.6977881 Z M31.8105305,40 L22.2887342,40 C21.7897518,40 21.3192224,39.8781782 20.9052652,39.6626538 C20.491308,39.8781782 20.0207786,40 19.5217962,40 L10,40 C8.34314575,40 7,38.6568542 7,37 L7,16.3714286 C7,14.7145743 8.34314575,13.3714286 10,13.3714286 L19.2887342,13.3714286 L19.2887342,6 C19.2887342,4.34314575 20.63188,3 22.2887342,3 L31.8105305,3 C33.4673847,3 34.8105305,4.34314575 34.8105305,6 L34.8105305,20.9142857 L44,20.9142857 C45.6568542,20.9142857 47,22.2574315 47,23.9142857 L47,37 C47,38.6568542 45.6568542,40 44,40 L34.4782038,40 C33.9990565,40 33.5461452,39.8876708 33.1443671,39.6879099 C32.742589,39.8876708 32.2896777,40 31.8105305,40 Z M11,36 L18.5217962,36 L18.5217962,17.3714286 L11,17.3714286 L11,36 Z M23.2887342,36 L30.8105305,36 L30.8105305,7 L23.2887342,7 L23.2887342,36 Z M35.4782038,36 L43,36 L43,24.9142857 L35.4782038,24.9142857 L35.4782038,36 Z" id="形状结合"></path>
            </g>
        </g>
    </g>
</svg>