<?xml version="1.0" encoding="UTF-8"?>
<svg width="54px" height="54px" viewBox="0 0 54 54" version="1.1" xmlns="http://www.w3.org/2000/svg" xmlns:xlink="http://www.w3.org/1999/xlink">
    <!-- Generator: Sketch 56 (81588) - https://sketch.com -->
    <title>爱豆</title>
    <desc>Created with Sketch.</desc>
    <g id="页面-1" stroke="none" stroke-width="1" fill="none" fill-rule="evenodd">
        <g id="画板" transform="translate(-58.000000, -49.000000)" fill="#333333" fill-rule="nonzero">
            <g id="编组备份" transform="translate(58.000000, 49.000000)">
                <path d="M26.5346589,41.0041958 L19.7920379,44.5490014 C17.347815,45.8340054 14.3246792,44.8942728 13.0396752,42.4500499 C12.5279798,41.4767475 12.3514064,40.3619071 12.5372907,39.278119 L13.8250167,31.7701002 C13.8806546,31.4457061 13.7731061,31.1147059 13.53742,30.8849688 L8.0825251,25.5677603 C6.10510721,23.6402543 6.06464567,20.474688 7.99215173,18.4972701 C8.75969476,17.7098519 9.76540681,17.197416 10.853592,17.0392935 L18.3920714,15.9438883 C18.7177815,15.8965598 18.9993471,15.6919905 19.1450091,15.396847 L22.5163196,8.56582583 C23.7384311,6.08955753 26.7365603,5.07286254 29.2128286,6.294974 C30.1988916,6.7816252 30.9970292,7.5797628 31.4836804,8.56582583 L34.8549909,15.396847 C35.0006529,15.6919905 35.2822185,15.8965598 35.6079286,15.9438883 L43.146408,17.0392935 C45.8791323,17.4363815 47.7725396,19.9735958 47.3754515,22.7063201 C47.217329,23.7945053 46.7048931,24.8002173 45.9174749,25.5677603 L40.46258,30.8849688 C40.2268939,31.1147059 40.1193454,31.4457061 40.1749833,31.7701002 L41.4627093,39.278119 C41.9295144,41.9998012 40.1015753,44.5845809 37.379893,45.0513859 C36.2961049,45.2372701 35.1812645,45.0606967 34.2079621,44.5490014 L27.4653411,41.0041958 C27.1740171,40.8510377 26.8259829,40.8510377 26.5346589,41.0041958 Z M24.6732944,37.4636701 C26.1299145,36.6978796 27.8700855,36.6978796 29.3267056,37.4636701 L36.0693266,41.0084757 C36.2639871,41.1108148 36.4869552,41.1461294 36.7037128,41.1089526 C37.2480492,41.0155916 37.6136371,40.4986357 37.520276,39.9542992 L36.23255,32.4462804 C35.9543603,30.8243101 36.4921028,29.1693091 37.6705332,28.0206233 L43.1254281,22.7034149 C43.2829118,22.5499063 43.385399,22.3487639 43.4170235,22.1311269 C43.4964411,21.584582 43.1177596,21.0771391 42.5712148,20.9977215 L35.0327354,19.9023163 C33.4041846,19.6656741 31.9963566,18.6428272 31.2680466,17.1671098 L27.8967361,10.3360887 C27.7994058,10.1388761 27.6397783,9.97924855 27.4425657,9.88191831 C26.9473121,9.63749602 26.3476862,9.84083501 26.1032639,10.3360887 L22.7319534,17.1671098 C22.0036434,18.6428272 20.5958154,19.6656741 18.9672646,19.9023163 L11.4287852,20.9977215 C11.2111482,21.029346 11.0100058,21.1318332 10.8564972,21.2893168 C10.470996,21.6848004 10.4790883,22.3179137 10.8745719,22.7034149 L16.3294668,28.0206233 C17.5078972,29.1693091 18.0456397,30.8243101 17.76745,32.4462804 L16.479724,39.9542992 C16.4425471,40.1710568 16.4778618,40.3940249 16.5802009,40.5886854 C16.8372017,41.07753 17.4418288,41.2654765 17.9306734,41.0084757 L24.6732944,37.4636701 Z M27,33.7916667 C23.2490661,33.7916667 20.2083333,30.7509339 20.2083333,27 C20.2083333,23.2490661 23.2490661,20.2083333 27,20.2083333 C30.7509339,20.2083333 33.7916667,23.2490661 33.7916667,27 C33.7916667,30.7509339 30.7509339,33.7916667 27,33.7916667 Z M27,29.7916667 C28.5417949,29.7916667 29.7916667,28.5417949 29.7916667,27 C29.7916667,25.4582051 28.5417949,24.2083333 27,24.2083333 C25.4582051,24.2083333 24.2083333,25.4582051 24.2083333,27 C24.2083333,28.5417949 25.4582051,29.7916667 27,29.7916667 Z" id="形状结合"></path>
            </g>
        </g>
    </g>
</svg>